<svg xmlns="http://www.w3.org/2000/svg" viewBox="0 0 100 100" width="40" height="40">
  <!-- Background circle -->
  <circle cx="50" cy="50" r="45" fill="#294172"/>
  <!-- Infinity-like shape in medium blue -->
  <path d="M63 25c-10 0-18 8-18 18v9.5h-9.5c-10 0-18 8-18 18s8 18 18 18 18-8 18-18v-9.5H63c10 0 18-8 18-18s-8-18-18-18zm-18 45.5c0 5.2-4.3 9.5-9.5 9.5s-9.5-4.3-9.5-9.5 4.3-9.5 9.5-9.5h8.2c0.7 0 1.3 0.6 1.3 1.3v8.2zm18-18h-8.2c-0.7 0-1.3-0.6-1.3-1.3V43c0-5.2 4.3-9.5 9.5-9.5s9.5 4.3 9.5 9.5-4.3 9.5-9.5 9.5z" fill="#3c6eb4"/>
  <!-- White infinity path -->
  <path d="M45 43v-7.5c0-10 8-17.5 18-17.5 1.3 0 2.7 0.2 4 0.5 2 0.5 3.7 2.2 3.7 4.1 0 2.4-1.7 4-4.3 4-1.2 0-1.6-0.2-3.4-0.2-5.2 0-9.5 4.2-9.5 9.5v8.2c0 0.7 0.6 1.3 1.3 1.3h6.2c2.3 0 4.2 1.9 4.2 4.2s-1.9 4.2-4.2 4.2h-7.5v9.5c0 10-8 18-18 18-1.3 0-2.7-0.2-4-0.5-2-0.5-3.7-2.2-3.7-4.1 0-2.4 1.7-4 4.3-4 1.2 0 1.6 0.2 3.4 0.2 5.2 0 9.5-4.2 9.5-9.5v-8.2c0-0.7-0.6-1.3-1.3-1.3h-6.2c-2.3 0-4.2-1.9-4.2-4.2s1.9-4.2 4.2-4.2H45z" fill="#ffffff"/>
</svg>
